<?xml version="1.0" encoding="UTF-8" standalone="no"?>
<!-- Created with Inkscape (http://www.inkscape.org/) -->

<svg
   xmlns:dc="http://purl.org/dc/elements/1.1/"
   xmlns:cc="http://creativecommons.org/ns#"
   xmlns:rdf="http://www.w3.org/1999/02/22-rdf-syntax-ns#"
   xmlns:svg="http://www.w3.org/2000/svg"
   xmlns="http://www.w3.org/2000/svg"
   xmlns:sodipodi="http://sodipodi.sourceforge.net/DTD/sodipodi-0.dtd"
   xmlns:inkscape="http://www.inkscape.org/namespaces/inkscape"
   id="svg2457"
   sodipodi:version="0.32"
   inkscape:version="0.48.4 r9939"
   width="1913"
   height="3000"
   version="1.0"
   sodipodi:docname="angel.svg"
   inkscape:output_extension="org.inkscape.output.svg.inkscape">
  <metadata
     id="metadata2462">
    <rdf:RDF>
      <cc:Work
         rdf:about="">
        <dc:format>image/svg+xml</dc:format>
        <dc:type
           rdf:resource="http://purl.org/dc/dcmitype/StillImage" />
      </cc:Work>
    </rdf:RDF>
  </metadata>
  <defs
     id="defs2460">
    <inkscape:perspective
       sodipodi:type="inkscape:persp3d"
       inkscape:vp_x="0 : 526.18109 : 1"
       inkscape:vp_y="0 : 1000 : 0"
       inkscape:vp_z="744.09448 : 526.18109 : 1"
       inkscape:persp3d-origin="372.04724 : 350.78739 : 1"
       id="perspective2464" />
  </defs>
  <sodipodi:namedview
     inkscape:window-height="744"
     inkscape:window-width="1301"
     inkscape:pageshadow="2"
     inkscape:pageopacity="0.0"
     guidetolerance="10.0"
     gridtolerance="10.0"
     objecttolerance="10.0"
     borderopacity="1.0"
     bordercolor="#666666"
     pagecolor="#ffffff"
     id="base"
     showgrid="false"
     inkscape:zoom="0.154"
     inkscape:cx="1459.1165"
     inkscape:cy="1441.311"
     inkscape:window-x="65"
     inkscape:window-y="24"
     inkscape:current-layer="svg2457"
     inkscape:window-maximized="1" />
  <path
     style="fill:#000000"
     d="m 798.23938,2349.8335 c -43.37029,-5.3396 -78.43046,-37.014 -85.79815,-77.5129 -1.05904,-5.8214 -1.18425,-92.3782 -0.99459,-687.5288 l 0.21699,-680.86884 2.31045,-7.8351 c 4.72426,-16.02071 13.98673,-31.10551 26.21451,-42.69282 12.29809,-11.6539 28.76116,-20.70061 45.18719,-24.83087 7.77296,-1.95454 9.47152,-2.07176 38.31231,-2.64434 38.81217,-0.77059 234.52501,-0.76887 272.84911,0.003 28.2983,0.56945 29.6486,0.66669 37.62,2.70796 16.7538,4.29026 32.8176,13.14281 45.1693,24.89216 15.0207,14.28813 25.0473,33.2224 27.9736,52.82538 0.6774,4.53778 0.8594,187.82685 0.6807,685.49575 l -0.2439,679.3018 -1.8847,6.6598 c -6.8794,24.3103 -21.2674,43.7989 -41.9755,56.8558 -10.5458,6.6495 -20.3641,10.623 -34.267,13.8682 -6.7668,1.5796 -9.4166,1.6513 -71.3127,1.9313 l -64.28494,0.2907 0,-337.3402 0,-337.3403 -34.31286,0 -34.31284,0 0,337.3005 0,337.3004 -60.97762,-0.1 c -33.53769,-0.055 -63.3139,-0.3869 -66.16936,-0.7385 z M 559.10721,1599.3129 c -18.96885,-1.9425 -35.09832,-15.0485 -41.06344,-33.3663 -1.46188,-4.4891 -1.51755,-16.6294 -1.51755,-330.9914 l 0,-326.33119 1.92891,-5.48457 c 5.61074,-15.95333 18.48641,-27.33637 35.49514,-31.38022 4.31971,-1.02702 9.73451,-1.18615 32.65921,-0.95987 25.68873,0.25362 27.83532,0.38376 32.91488,1.99513 10.55132,3.34714 20.4646,11.05953 26.62968,20.71745 6.37321,9.98401 5.78489,-6.22474 6.46385,178.08187 0.33495,90.9261 0.3369,239.0092 0.004,329.0735 l -0.60469,163.7533 -1.82143,4.6672 c -4.08162,10.4588 -13.42423,20.5536 -23.51256,25.4061 -9.48649,4.5629 -12.01349,4.9101 -37.81097,5.1943 -12.96033,0.1429 -26.35473,-0.026 -29.76535,-0.3753 z m 750.74829,0.028 c -12.3517,-1.3874 -20.0319,-4.935 -29.0389,-13.4136 -6.7717,-6.3744 -11.0346,-13.4224 -13.2451,-21.8985 -0.9381,-3.5972 -1.1238,-58.0392 -1.1238,-329.4653 0,-313.22181 0.056,-325.32702 1.5175,-329.81604 5.0534,-15.51802 17.0876,-27.45031 32.2369,-31.96417 5.6848,-1.6938 7.142,-1.76769 34.8712,-1.76769 28.2512,0 29.0726,0.0439 34.5824,1.84658 12.019,3.93243 22.9729,13.12651 28.4634,23.89019 5.1226,10.04278 4.7531,-16.27895 4.7531,338.59473 0,308.2724 -0.076,325.4158 -1.4588,330.1603 -0.8025,2.7524 -2.6502,7.1596 -4.1064,9.7939 -3.4575,6.2551 -13.5459,15.821 -20.1334,19.0905 -9.274,4.6028 -12.4223,5.0383 -38.3796,5.308 -12.9604,0.1347 -25.9826,-0.027 -28.9385,-0.3589 z M 478.42333,1213.19 c -1.40241,-1.1724 -6.55618,-5.4812 -11.45282,-9.5751 -25.63302,-21.4305 -42.94746,-45.4513 -48.81859,-67.7277 l -1.87057,-7.0973 -7.75462,-4.184 c -46.48283,-25.0794 -75.97265,-45.7582 -96.97353,-67.9991 -17.27739,-18.2977 -27.50717,-35.0672 -32.06864,-52.5699 -2.70154,-10.36588 -2.42655,-28.17768 0.54847,-35.52429 0.35014,-0.86468 -1.39329,-2.6085 -5.96672,-5.96787 -25.81557,-18.96251 -46.68899,-42.63782 -55.96241,-63.47428 -5.09796,-11.45459 -6.6203,-18.784 -6.55935,-31.58066 0.0477,-10.01487 0.31991,-12.19522 2.29775,-18.40351 1.23402,-3.87343 3.69345,-9.66442 5.4654,-12.86889 l 3.22174,-5.82632 -11.33673,-10.67562 c -33.49518,-31.54186 -47.05593,-61.7187 -40.74915,-90.67925 3.08377,-14.1606 9.22507,-24.62993 21.10178,-35.97312 22.44816,-21.43972 60.54705,-34.70488 114.92939,-40.01577 16.61053,-1.62215 69.47539,-1.83785 89.74987,-0.3662 58.88651,4.27436 113.36444,12.81278 174.04462,27.27833 66.14249,15.76769 135.99679,39.12537 186.95163,62.51235 10.724,4.92203 16.22585,8.00943 22.73743,12.75923 17.72013,12.92577 39.20342,25.25106 57.27725,32.86085 l 8.99996,3.78936 -24.39637,0.52401 c -34.58751,0.74284 -49.30731,3.47212 -69.89318,12.95947 l -7.66395,3.53205 -17.55391,-7.65668 C 679.92301,780.82472 638.80023,766.35344 588.45915,752.58271 525.41334,735.33663 465.37518,724.38912 403.66595,718.8871 c -19.46046,-1.73511 -79.11168,-1.9967 -95.08376,-0.41698 -25.19562,2.49197 -42.63329,5.84329 -54.2509,10.42639 -22.7327,8.96796 -21.35177,19.50313 5.81868,44.3908 12.6052,11.54619 24.55741,20.05885 58.56071,41.70861 14.43826,9.19274 26.25059,16.9197 26.24961,17.1709 -8.5e-4,0.25126 -13.11633,6.68066 -29.14524,14.28759 -20.53052,9.74323 -30.0869,14.69987 -32.33572,16.77162 -3.0497,2.80966 -3.17615,3.12486 -2.83181,7.05981 0.51798,5.91902 4.34198,11.46084 15.53244,22.50996 16.75142,16.53995 27.79193,24.56448 65.03343,47.26808 12.48516,7.61131 22.40068,14.09725 22.03452,14.41325 -0.36617,0.31591 -7.92106,6.63942 -16.78865,14.05227 -20.41518,17.06598 -19.84357,16.45805 -19.84357,21.10622 0,18.76878 48.45948,55.26478 117.66693,88.61808 l 17.0706,8.2267 0.0167,64.4437 c 0.009,35.4439 -0.0763,64.4331 -0.19003,64.4206 -0.11368,-0.013 -1.35414,-0.9823 -2.75654,-2.1547 z m 959.59757,-62.6577 0.01,-64.0519 19.9075,-9.7246 c 33.1952,-16.2156 52.9897,-27.6519 74.7449,-43.1838 26.3596,-18.8193 40.1005,-33.8694 40.1005,-43.92127 0,-4.62662 0.5904,-3.99583 -19.0168,-20.31616 -8.4128,-7.00254 -15.9788,-13.3422 -16.8134,-14.08801 -1.4534,-1.29899 -0.5488,-1.9462 21.4878,-15.37076 33.9839,-20.70272 44.5387,-28.19439 60.5056,-42.94636 13.7205,-12.67647 19.982,-21.35366 19.982,-27.69076 0,-5.38552 -3.7408,-7.78769 -35.8738,-23.03625 -15.7377,-7.46832 -28.6149,-13.79712 -28.616,-14.06405 0,-0.26695 11.2532,-7.66961 25.0094,-16.45031 31.8257,-20.31473 41.2529,-26.72078 50.5693,-34.3628 19.4268,-15.93566 31.0471,-29.95035 31.0706,-37.47284 0.038,-12.10104 -24.1425,-20.94085 -69.031,-25.23635 -14.5249,-1.38992 -59.1682,-1.87667 -77.7319,-0.84751 -69.4005,3.84752 -147.3197,18.03554 -225.7309,41.10247 -40.3618,11.87365 -76.3011,24.98723 -115.5723,42.17011 l -18.0296,7.88884 -8.8419,-3.94896 c -22.3288,-9.97266 -38.5636,-12.63377 -77.3993,-12.68672 l -15.6415,-0.0213 17.2951,-8.16769 c 17.9851,-8.49361 34.3353,-18.11686 49.0326,-28.85922 27.134,-19.83232 125.0875,-55.00464 209.6924,-75.29459 121.7154,-29.1897 238.3095,-36.57075 310.0557,-19.62825 20.5458,4.85174 40.3576,12.62096 53.8035,21.09889 13.7228,8.65258 25.6935,21.46147 31.3158,33.50831 4.1794,8.95568 5.7209,16.52602 5.6974,27.98149 -0.027,12.9426 -2.2052,21.72639 -8.4721,34.15822 -8.5449,16.95108 -18.5955,29.27544 -38.835,47.62058 l -5.9429,5.3867 3.7106,7.14944 c 19.4457,37.46589 0.9605,82.04659 -50.3722,121.48298 -5.0022,3.84301 -9.537,7.36751 -10.077,7.83232 -0.7556,0.65 -0.6735,2.01988 0.3557,5.93782 2.1648,8.24031 1.7462,23.57925 -0.9052,33.17157 -10.514,38.0375 -53.2329,78.6675 -120.0103,114.1416 -16.6158,8.8268 -16.6647,8.8616 -17.3126,12.2735 -3.7131,19.5561 -17.9211,41.7878 -40.1439,62.8147 -8.4795,8.0233 -22.3899,19.7027 -23.466,19.7027 -0.2854,0 -0.5147,-28.8233 -0.5098,-64.0518 z M 940.68245,779.69719 C 825.82684,772.21228 728.41771,691.06952 705.52479,583.80858 c -4.39862,-20.60899 -6.13105,-48.35839 -4.30433,-68.94502 4.01316,-45.2273 20.00349,-86.64776 47.57639,-123.2393 17.71763,-23.51278 44.71692,-47.95604 69.93035,-63.31005 38.93631,-23.71071 81.89974,-36.80356 127.78401,-38.94144 67.23869,-3.13281 130.93039,17.43142 181.85829,58.71695 8.9976,7.294 25.4736,23.21611 32.3721,31.28389 62.731,73.36256 75.7896,173.09956 33.955,259.3317 -13.2745,27.36178 -35.9761,56.63425 -59.7126,76.99584 -53.9152,46.24951 -122.0851,68.70228 -194.30155,63.99604 z M 918.77184,235.96608 C 808.7648,230.18592 726.08663,208.0444 683.85083,173.05337 670.47545,161.97228 660.26676,147.49908 656.5445,134.34025 654.23692,126.18257 654.07492,111.7905 656.20253,103.96077 659.77742,90.80494 667.33958,79.424894 680.52834,67.353648 719.60501,31.588005 800.57548,8.4741056 910.9171,1.5866911 c 19.57506,-1.22185668 77.70127,-1.21562875 97.5643,0.010454 100.9431,6.2309428 178.5839,26.4729013 220.4964,57.4863303 9.539,7.058448 20.9316,18.691772 25.7664,26.310737 18.556,29.241678 11.1992,62.604098 -19.3558,87.776368 -39.8482,32.82832 -114.5866,54.19352 -215.7451,61.67426 -19.78282,1.46294 -81.34478,2.14725 -100.87146,1.12124 z m 85.58946,-65.80764 c 63.2903,-3.79458 110.8092,-12.5926 154.8263,-28.66575 21.9755,-8.02448 36.5674,-17.14585 36.5674,-22.85823 0,-7.57862 -19.1402,-17.76215 -54.1564,-28.813865 -36.9975,-11.677023 -74.7056,-18.238316 -128.9832,-22.443353 -20.63693,-1.598795 -89.7119,-1.345037 -111.20668,0.408535 -52.50905,4.283759 -90.41147,11.159078 -126.82761,23.00593 -32.06971,10.432873 -50.93767,20.572713 -50.93767,27.374453 0,8.12767 18.91445,18.21982 56.22344,29.99902 35.29387,11.14299 81.43847,18.74295 133.11726,21.92425 15.23989,0.93814 76.11385,0.98413 91.37716,0.0691 z"
     id="path2470"
     inkscape:connector-curvature="0" />
  <path
     style="fill:#aa0000"
     d="m 770.20375,2337.7622 c -24.20807,-11.9612 -35.40304,-22.9428 -46.28822,-45.4057 -9.41303,-19.425 -9.86704,-51.611 -9.97959,-707.4686 l -0.11791,-687.11768 15.82968,-23.65349 c 9.80196,-14.64652 24.18648,-27.69343 37.77579,-34.26307 21.12681,-10.21358 28.51818,-10.5548 197.98897,-9.14087 l 176.04293,1.46875 19.4437,12.63197 c 10.694,6.94752 24.0985,20.68439 29.7876,30.52627 9.8315,17.00778 10.5,34.96947 13.4921,362.50042 l 3.1481,344.6059 -135.3491,1.4502 -135.34918,1.4501 135.56548,1.1806 135.5655,1.1806 -0.052,339.6052 -0.052,339.6052 -12.8869,26.2278 c -9.6366,19.6127 -18.8828,29.5575 -36.6595,39.4298 -22.2015,12.3296 -28.2642,13.202 -91.7545,13.202 l -67.98217,0 0,-335.7894 0,-335.7893 -37.58254,0 -37.58252,0 0,335.7893 0,335.7894 -68.45386,-0.031 c -51.58094,-0.026 -72.42099,-1.9916 -84.54869,-7.9838 l 0,0 z"
     id="path3021"
     inkscape:connector-curvature="0" />
  <path
     style="fill:#aa0000"
     d="M 915.15291,773.47389 C 806.28861,752.32638 725.60689,673.84971 707.43822,571.43605 c -13.26645,-74.7807 13.505,-150.74195 72.90825,-206.86969 99.56204,-94.07216 251.71173,-95.98945 353.00643,-4.44837 37.7698,34.13299 55.4508,60.57466 69.8781,104.50166 18.4638,56.21716 14.0182,117.35948 -12.3893,170.39247 -37.5243,75.35844 -110.0295,126.74234 -195.32141,138.42283 -42.58713,5.83221 -50.52464,5.83606 -80.36738,0.0389 z"
     id="path3023"
     inkscape:connector-curvature="0" />
  <path
     style="fill:#aa0000"
     d="M 869.517,229.4248 C 783.41682,218.88273 709.57681,193.49401 680.06066,164.28322 664.24922,148.63535 656.59072,121.23262 662.15618,100.21953 666.97125,82.039556 696.11253,56.435282 727.47409,42.829515 782.73169,18.856788 834.0485,9.9601942 933.94416,7.0346101 1035.2468,4.0678195 1097.5861,10.658576 1162.1237,31.158678 c 63.3502,20.122915 102.5023,57.167225 97.6387,92.382182 -6.2435,45.20586 -61.5634,78.81197 -162.0658,98.45302 -49.1949,9.61409 -176.49107,13.75964 -228.1796,7.43092 z m 237.7445,-70.87232 c 60.0966,-14.866 90.999,-28.71511 88.8344,-39.81172 -2.2337,-11.45061 -39.3427,-28.582622 -87.6615,-40.470434 -55.2888,-13.602664 -240.44467,-13.370704 -297.97564,0.373301 -58.59466,13.998124 -95.66859,32.943783 -87.86881,44.903073 9.11049,13.96896 80.8733,36.29777 144.09243,44.83398 55.69897,7.52079 193.14352,1.90587 240.57912,-9.8282 l 0,0 z"
     id="path3025"
     inkscape:connector-curvature="0" />
  <path
     style="fill:#aa0000"
     d="m 451.46375,1182.8052 c -11.91574,-12.828 -24.2621,-30.7807 -27.43637,-39.8951 -4.38718,-12.597 -15.36569,-22.3309 -45.77524,-40.5855 -22.00214,-13.2078 -50.70327,-35.6045 -63.78027,-49.7704 -23.39827,-25.3468 -40.33642,-63.89802 -33.0102,-75.13122 2.0524,-3.14692 -9.50318,-19.14883 -26.08258,-36.11861 -35.60624,-36.44457 -45.6873,-61.74352 -36.95582,-92.74272 5.71539,-20.29114 5.27574,-21.57108 -14.85278,-43.24058 -38.54789,-41.49896 -40.94548,-79.05048 -7.03957,-110.25474 32.60571,-30.00765 60.63727,-35.92049 168.30664,-35.50173 75.65265,0.29424 104.41549,2.53364 147.64558,11.49534 117.87493,24.43573 221.66385,60.0271 280.43667,96.1675 l 33.46589,20.57877 -25.41249,3.38225 c -13.97688,1.86029 -32.89652,5.61109 -42.04361,8.33527 -14.08019,4.19327 -23.5505,2.13545 -61.74269,-13.41585 -54.00878,-21.99162 -160.91928,-50.58951 -227.6552,-60.89634 -55.44282,-8.56269 -173.21138,-9.90324 -202.096,-2.30043 -46.38164,12.20825 -39.9432,32.52219 24.53169,77.3999 l 45.42448,31.6177 -29.2286,14.86221 c -18.1805,9.24446 -29.2286,18.20772 -29.2286,23.71289 0,10.86773 30.72511,39.79722 68.56675,64.55943 l 28.29977,18.51842 -17.47357,17.08388 c -16.77007,16.396 -17.14512,17.63929 -9.31565,30.87886 9.15526,15.4815 59.97408,52.3973 101.28362,73.5743 l 27.28949,13.9897 0,58.5101 c 0,32.1807 -1.00268,58.5103 -2.22817,58.5103 -1.22551,0 -11.97742,-10.4956 -23.89317,-23.3236 z"
     id="path3027"
     inkscape:connector-curvature="0" />
  <path
     style="fill:#aa0000"
     d="m 536.23034,1583.0112 -15.6938,-14.8717 0,-333.8681 0,-333.86813 13.17828,-12.4881 c 11.51379,-10.91068 17.98681,-12.48802 51.24887,-12.48802 33.26207,0 39.7351,1.57734 51.24889,12.48802 l 13.17827,12.4881 0,333.86813 0,333.8681 -15.69379,14.8717 c -13.94545,13.215 -19.37452,14.8719 -48.73337,14.8719 -29.35885,0 -34.78791,-1.6569 -48.73335,-14.8719 z"
     id="path3029"
     inkscape:connector-curvature="0" />
  <path
     style="fill:#aa0000"
     d="m 1438.6236,1148.0752 0,-57.7342 44.2937,-23.6031 c 51.9148,-27.6643 89.9296,-59.9019 89.9296,-76.26279 0,-6.82069 -6.6523,-16.04072 -16.6041,-23.01293 l -16.604,-11.63298 34.2836,-21.79447 c 33.2978,-21.16779 68.7206,-54.03096 68.7206,-63.755 0,-2.63635 -5.4361,-7.92856 -12.08,-11.76038 -6.6441,-3.83184 -20.1981,-11.60228 -30.12,-17.26767 l -18.04,-10.30079 35.1076,-23.74007 c 34.7826,-23.5203 68.0838,-54.88471 68.0838,-64.12404 0,-2.63637 -6.5298,-8.85276 -14.5108,-13.8142 -11.9667,-7.43924 -29.1455,-9.31485 -97.983,-10.69804 -73.0275,-1.46737 -92.0486,-0.0292 -152.0151,11.49389 -76.8513,14.76766 -153.1863,36.72209 -206.5093,59.39341 -33.6302,14.29856 -37.285,14.82954 -62.8705,9.13508 -14.9405,-3.32528 -34.1905,-7.5227 -42.7778,-9.32759 -15.2824,-3.21215 -14.8272,-3.73067 21.4756,-24.46535 48.7067,-27.81909 84.1968,-42.34349 156.4224,-64.01608 110.4989,-33.15718 164.3302,-41.34742 272.5986,-41.47492 90.3831,-0.10643 98.4685,0.66905 124.8668,11.976 15.5243,6.64941 35.4563,19.89355 44.2937,29.43142 27.942,30.15731 20.3992,73.79207 -19.7597,114.3103 -12.0092,12.11657 -12.7258,15.24426 -7.615,33.23056 8.6136,30.31292 -0.9824,54.57739 -34.9172,88.29109 -23.9103,23.75447 -29.019,31.99833 -29.019,46.82749 0,40.14936 -35.3173,83.06466 -100.4254,122.03036 -23.7071,14.1881 -36.4666,25.6946 -41.7299,37.6316 -8.8472,20.0652 -38.3396,56.1656 -49.0735,60.069 -6.0475,2.1989 -7.4217,-7.9909 -7.4217,-55.0356 z"
     id="path3031"
     inkscape:connector-curvature="0" />
  <path
     style="fill:#aa0000"
     d="m 1292.6889,1590.354 c -7.9176,-4.231 -16.1787,-12.8535 -18.3578,-19.1609 -2.1791,-6.3074 -3.8566,-159.8299 -3.7278,-341.1611 l 0.2342,-329.6932 12.3483,-12.45583 c 10.8958,-10.99051 16.9192,-12.45582 51.2023,-12.45582 36.863,0 39.5718,0.80865 52.8662,15.78056 l 14.0124,15.78049 -1.455,332.5888 -1.4551,332.589 -11.9676,11.3387 c -15.4148,14.6046 -71.5139,18.7055 -93.7001,6.8493 l 0,0 z"
     id="path3033"
     inkscape:connector-curvature="0" />
</svg>
