<?xml version="1.0" encoding="UTF-8" standalone="no"?>
<svg
   xmlns:dc="http://purl.org/dc/elements/1.1/"
   xmlns:cc="http://creativecommons.org/ns#"
   xmlns:rdf="http://www.w3.org/1999/02/22-rdf-syntax-ns#"
   xmlns:svg="http://www.w3.org/2000/svg"
   xmlns="http://www.w3.org/2000/svg"
   xmlns:sodipodi="http://sodipodi.sourceforge.net/DTD/sodipodi-0.dtd"
   xmlns:inkscape="http://www.inkscape.org/namespaces/inkscape"
   version="1.1"
   x="0px"
   y="0px"
   viewBox="0 0 199.7 337.26750000000004"
   style="enable-background:new 0 0 199.7 269.814;"
   xml:space="preserve"
   id="svg2"
   inkscape:version="0.48.4 r9939"
   width="100%"
   height="100%"
   sodipodi:docname="devil.svg"><metadata
     id="metadata18"><rdf:RDF><cc:Work
         rdf:about=""><dc:format>image/svg+xml</dc:format><dc:type
           rdf:resource="http://purl.org/dc/dcmitype/StillImage" /></cc:Work></rdf:RDF></metadata><defs
     id="defs16" /><sodipodi:namedview
     pagecolor="#ffffff"
     bordercolor="#666666"
     borderopacity="1"
     objecttolerance="10"
     gridtolerance="10"
     guidetolerance="10"
     inkscape:pageopacity="0"
     inkscape:pageshadow="2"
     inkscape:window-width="1301"
     inkscape:window-height="744"
     id="namedview14"
     showgrid="false"
     inkscape:zoom="1.3994826"
     inkscape:cx="162.39262"
     inkscape:cy="153.77129"
     inkscape:window-x="65"
     inkscape:window-y="24"
     inkscape:window-maximized="1"
     inkscape:current-layer="svg2" /><g
     id="g4"><path
       d="M83.099,50.426c-0.217,1.255-0.336,2.543-0.336,3.859c0,12.426,10.074,22.5,22.5,22.5c12.426,0,22.5-10.074,22.5-22.5   c0-1.316-0.12-2.604-0.336-3.859c17.377-16.297,1.132-38.142,1.132-38.142s1.364,22.69-10.212,23.702   c-3.688-2.641-8.202-4.201-13.084-4.201c-4.882,0-9.397,1.56-13.084,4.201c-11.575-1.012-10.212-23.702-10.212-23.702   S65.722,34.129,83.099,50.426z"
       id="path6" /><path
       d="M21.044,50.302v69.545c-4.038-0.514-7.882,2.115-8.801,6.165c-0.98,4.31,1.721,8.596,6.031,9.574   c0.932,0.211,1.852,0.382,2.77,0.551v132.648h7.279V137.056c1.327,0.088,2.643,0.145,3.935,0.145c0.014,0,0.031,0,0.045,0   c10.289,0,19.352-2.772,26.864-6.836c7.938-4.298,14.206-9.931,19.05-15.411v142.497c0,6.829,5.535,12.363,12.363,12.363   c6.828,0,12.363-5.534,12.363-12.363v-90.134h4.637v90.134c0,6.829,5.535,12.363,12.363,12.363c6.828,0,12.363-5.534,12.363-12.363   V237.74c5.118,5.976,11.538,10.182,19.232,10.197c6.009,0,12.19-2.6,18.387-7.735c6.672-5.418,9.526-12.115,9.452-18.512   c-0.047-7.577-3.33-14.457-6.245-20.809c-2.989-6.321-5.569-12.177-5.499-16.441c0.021-2.146,0.491-3.871,1.811-5.731   c1.152-1.6,3.083-3.327,6.183-5.043l0.837,13.805l23.234-33.241l-38.511,4.402l10.646,7.989c-3.899,2.145-6.833,4.585-8.875,7.403   c-2.348,3.219-3.347,6.903-3.326,10.416c0.072,7.048,3.363,13.495,6.245,19.812c2.958,6.284,5.546,12.372,5.499,17.438   c-0.076,4.251-1.385,7.971-6.551,12.346c-5.281,4.356-9.651,5.901-13.288,5.901c-5.001,0.013-9.764-2.98-14.385-8.905   c-1.702-2.181-3.321-4.724-4.847-7.536V103.947c2.05,1.544,4.181,3.597,6.13,6.339c3.903,5.536,7.352,14.053,7.376,28.079   c0.002,6.648-0.802,14.512-2.763,23.759c-0.917,4.322,1.844,8.57,6.166,9.487c0.56,0.119,1.118,0.176,1.668,0.176   c3.698,0,7.02-2.579,7.819-6.342c2.158-10.178,3.111-19.144,3.111-27.08c0.113-22.967-8.381-37.486-17.511-45.278   c-6.629-5.724-13.111-8.014-16.481-8.898c-0.987-0.458-2.083-0.721-3.243-0.721H85.944c-0.479,0-0.946,0.05-1.402,0.133   c-3.196-0.127-6.292,1.677-7.648,4.784L76.885,88.4c-0.26,0.614-4.338,9.312-11.964,17.397c-3.804,4.052-8.46,7.94-13.872,10.762   c-5.429,2.823-11.563,4.633-18.792,4.642c-1.272,0-2.589-0.076-3.935-0.196V50.395C40.559,48.687,50,37.689,50,24.367   C50,16.4,46.619,9.267,41.288,4.45c2.104,3.882,3.333,8.557,3.333,13.588c0,12.189-7.206,22.287-16.616,24.083L24.71,0h-0.053   l-3.283,41.983C12.271,39.87,5.38,29.956,5.38,18.038c0-5.031,1.228-9.706,3.332-13.588C3.381,9.267,0,16.4,0,24.367   C0,37.459,9.117,48.31,21.044,50.302z"
       id="path8" /></g><path
     style="fill:#550000"
     d="m 85.024217,267.62376 c -6.254962,-3.39975 -5.955301,0.61562 -5.955301,-79.79912 0,-40.31428 -0.299938,-73.29869 -0.66653,-73.29869 -0.366591,0 -3.208696,2.41921 -6.315787,5.37601 -10.204402,9.71084 -23.011154,15.49382 -36.639319,16.54475 l -7.91519,0.61036 0,65.53442 0,65.53441 -3.031578,0 -3.031578,0 0,-66.00708 0,-66.00709 -3.265647,-1.44552 c -1.796106,-0.79504 -3.956105,-2.69605 -4.799998,-4.22447 -1.372451,-2.48573 -1.372093,-3.07217 0.0034,-5.5579 0.882195,-1.59426 2.92846,-3.19113 4.799998,-3.74581 l 3.262211,-0.96686 -0.01052,-34.906813 -0.01052,-34.906805 -6.084056,-2.831074 C 4.8589873,42.638293 -0.93110488,31.423333 1.17317,20.040263 c 0.5740027,-3.105067 1.7374755,-6.636162 2.5854949,-7.84688 1.4412209,-2.057631 1.542498,-1.708459 1.5517254,5.349858 0.014896,11.394279 5.3873947,21.116575 13.3259167,24.115131 3.447455,1.30218 3.504652,1.114859 4.413714,-14.455035 1.076476,-18.4372532 1.905296,-18.7090003 3.250134,-1.065629 0.668718,8.773122 1.383771,16.11905 1.589008,16.324287 0.806038,0.806039 6.362735,-1.976137 9.08284,-4.547674 4.984048,-4.711831 7.0765,-9.989695 7.686662,-19.388338 l 0.55763,-8.5894706 1.896725,3.9599416 c 1.192183,2.489017 1.918593,6.284394 1.955596,10.217699 0.10904,11.590439 -7.080239,21.726835 -17.657484,24.895855 l -3.879042,1.162188 0,35.71372 0,35.713714 5.536673,0 c 15.788485,0 34.124724,-12.98039 43.050096,-30.475571 3.473683,-6.80898 3.904871,-6.913886 28.417601,-6.913886 23.87192,0 26.27803,0.425451 34.65875,6.128429 10.00178,6.806083 17.57448,18.402568 20.24421,31.001058 2.7343,12.90316 1.11209,40.44617 -2.75026,46.69553 -1.76563,2.85681 -5.63888,3.73147 -8.73463,1.97244 -4.35475,-2.47441 -4.73025,-4.02456 -3.34524,-13.81016 2.70222,-19.09238 0.99558,-35.57137 -4.57737,-44.19783 -3.12982,-4.84471 -6.43504,-8.58947 -7.58127,-8.58947 -0.45891,0 -0.83438,27.08858 -0.83438,60.19685 l 0,60.19686 2.92786,4.2555 c 9.08899,13.21039 17.72337,15.42197 29.24943,7.49182 2.95557,-2.03349 5.11309,-4.59727 6.49196,-7.71444 2.58268,-5.83858 1.77185,-10.59724 -4.19406,-24.61415 -5.30747,-12.46994 -6.53455,-17.94467 -5.16339,-23.03679 1.21082,-4.49663 4.67034,-8.99751 8.48495,-11.03903 1.44336,-0.77246 2.62429,-1.76155 2.62429,-2.19795 0,-0.43642 -2.07048,-2.37441 -4.60105,-4.30664 l -4.60106,-3.51317 4.34843,-0.58265 c 11.50296,-1.54128 30.42493,-3.62488 30.64853,-3.37487 0.13808,0.15441 -4.44205,7.00483 -10.17809,15.22316 l -10.42916,14.94241 -0.63697,-4.83715 c -0.35033,-2.66044 -0.7265,-5.51154 -0.83592,-6.33578 -0.13814,-1.04058 -1.43115,-0.36898 -4.23051,2.19739 -3.68102,3.37466 -4.02265,4.12003 -3.92892,8.57232 0.0728,3.45813 1.65311,8.53453 5.43385,17.45511 6.56376,15.48709 7.17106,22.06527 2.73575,29.63357 -5.1222,8.74036 -14.93692,14.88232 -23.78164,14.88232 -6.29279,0 -10.65967,-1.67058 -15.51855,-5.93674 -1.97821,-1.7369 -3.87777,-3.158 -4.22125,-3.158 -0.34347,0 -0.62448,5.04563 -0.62448,11.21251 0,12.34788 -1.03032,15.4643 -6.10341,18.46104 -3.49365,2.06375 -7.27074,2.1045 -11.10861,0.11986 -6.05057,-3.12887 -6.03008,-2.94539 -6.03008,-53.99585 l 0,-46.53438 -3.03158,0 -3.03158,0 0,46.58092 c 0,41.30678 -0.18713,46.8977 -1.65275,49.3788 -3.296004,5.57968 -10.125156,7.58498 -15.634043,4.59074 l 0,0 z"
     id="path2988"
     inkscape:connector-curvature="0" /><path
     style="fill:#800000"
     d="M 96.753121,74.235338 C 88.784056,70.595451 83.11102,61.864031 83.11102,53.23866 c 0,-2.11794 -1.182476,-5.004875 -3.253362,-7.942864 -4.401248,-6.2441 -5.069619,-15.339184 -1.771934,-24.112203 2.40119,-6.388021 3.951009,-6.243899 4.021489,0.373968 0.05064,4.754994 3.274976,11.581482 6.454136,13.664548 2.452904,1.607203 2.817127,1.584924 6.972144,-0.426485 5.742537,-2.779913 13.602157,-2.805939 18.979057,-0.06284 3.49697,1.78402 4.39696,1.885375 6.72981,0.757894 3.9201,-1.894601 6.3908,-6.891621 7.25409,-14.671467 l 0.75907,-6.84059 2.27174,4.875857 c 2.54993,5.472929 3.72339,13.82568 2.70498,19.254256 -0.37281,1.987246 -2.26425,5.691481 -4.20319,8.231636 -1.93894,2.540154 -3.25361,5.058139 -2.92149,5.595524 0.33212,0.537383 0.0981,3.413234 -0.52003,6.390779 -2.81751,13.571887 -17.64281,21.477212 -29.834409,15.90867 z"
     id="path2990"
     inkscape:connector-curvature="0" /><path
     style="fill:#800000"
     d="m 85.590182,267.42481 c -5.916601,-2.68622 -5.462754,3.18873 -6.128093,-79.32667 -0.324684,-40.26689 -0.719409,-73.3416 -0.877174,-73.49937 -0.157758,-0.15776 -3.600566,2.4853 -7.650682,5.87347 -11.837003,9.90237 -22.934648,14.61627 -37.196299,15.79971 l -6.25231,0.51882 0,65.65407 0,65.65406 -2.858199,0 -2.8582,0 0,-66.08133 0,-66.08133 -2.679561,-1.37409 c -3.079107,-1.57897 -5.525516,-4.05007 -6.192513,-6.25501 -0.627042,-2.07286 2.319933,-5.48683 6.011214,-6.96378 l 2.86086,-1.1447 0,-35.011384 0,-35.011398 -4.708428,-2.295739 C 10.441946,44.652913 6.535414,40.9634 3.7531014,35.31172 1.6897793,31.120518 1.4045566,29.845087 1.4045566,24.809725 c 0,-3.871929 0.4302511,-6.846689 1.3261406,-9.168948 0.7293773,-1.890638 1.4338335,-3.329832 1.5654583,-3.198207 0.1316247,0.131625 0.5584983,3.359146 0.948608,7.172268 0.8949134,8.747321 3.2475174,14.288666 7.9230865,18.662114 3.517233,3.289959 7.636985,4.870085 8.606682,3.301082 0.592511,-0.958704 1.1356,-6.220232 1.861425,-18.033796 0.25957,-4.224776 0.689662,-7.68141 0.955759,-7.68141 0.266099,0 1.045707,6.02184 1.732466,13.381867 0.686758,7.360027 1.386524,13.51974 1.555036,13.688252 0.575292,0.575292 6.376588,-2.413746 8.795134,-4.531574 5.105803,-4.470954 7.51515,-10.525708 8.400009,-21.109446 l 0.507792,-6.073673 1.019688,2.474738 c 2.776223,6.73777 2.502935,16.216655 -0.645476,22.38805 -2.315244,4.538253 -7.050166,9.129946 -11.682518,11.329129 -2.358015,1.119453 -4.850007,2.035623 -5.537761,2.035933 -1.174401,5.29e-4 -1.250462,2.195467 -1.250462,36.085327 l 0,36.084769 5.647951,0 c 14.674372,0 31.702234,-11.20037 41.326173,-27.182993 2.021468,-3.357077 4.292843,-6.662562 5.047515,-7.345529 2.127458,-1.925326 8.537977,-2.62054 24.077917,-2.611236 26.93816,0.01615 30.91519,1.166245 41.82552,12.095548 4.86456,4.87302 6.69864,7.33718 9.0673,12.18231 4.17901,8.54822 5.20512,13.06669 5.69077,25.05944 0.67266,16.61068 -1.50799,32.23854 -4.90347,35.14138 -3.42372,2.92697 -10.12232,0.49751 -10.76856,-3.90555 -0.18712,-1.27497 0.12416,-6.18314 0.69175,-10.90704 2.01352,-16.75796 0.22889,-33.49749 -4.41993,-41.45821 -2.52899,-4.33068 -7.62098,-9.84083 -8.38656,-9.07525 -0.38419,0.38419 -0.83721,25.41719 -1.08729,60.08266 l -0.4287,59.42408 3.39371,4.96687 c 7.31417,10.70467 14.57177,14.14727 23.31877,11.06114 5.00284,-1.7651 10.26247,-6.20423 12.37584,-10.4452 3.13034,-6.28177 2.48914,-10.68929 -3.83164,-26.3383 -4.11297,-10.1829 -5.11834,-13.77508 -5.11834,-18.28784 0,-5.23837 2.80483,-10.30555 7.78624,-14.06654 4.28798,-3.23747 4.29693,-3.19016 -1.46747,-7.75656 -3.18131,-2.52013 -3.31071,-2.74333 -1.78638,-3.08128 3.75115,-0.83165 27.03226,-3.33722 29.04221,-3.1256 l 2.17834,0.22936 -9.38289,13.78755 c -5.95941,8.75696 -9.56364,13.44982 -9.87826,12.8619 -0.27245,-0.50911 -0.71848,-2.77456 -0.99118,-5.03432 -0.61113,-5.06424 -1.38618,-5.18694 -5.83549,-0.92376 l -3.32395,3.18491 0.36745,5.21105 c 0.28853,4.09197 1.28466,7.58957 4.63845,16.28658 5.03782,13.06394 6.19008,17.49543 5.74731,22.10346 -0.73623,7.66203 -7.19488,15.82633 -15.90545,20.10586 -4.35327,2.13878 -5.66958,2.44816 -10.36097,2.43526 -6.26313,-0.0172 -9.96227,-1.42838 -15.76227,-6.01302 -2.0544,-1.62391 -3.86703,-2.82083 -4.02806,-2.65979 -0.16102,0.16102 -0.54347,5.39708 -0.8499,11.63567 -0.6168,12.55755 -1.22636,14.65377 -4.9998,17.19388 -5.58904,3.76229 -12.76829,2.3686 -15.46161,-3.00152 -1.37854,-2.74865 -1.4369,-4.51133 -1.6497,-49.83109 l -0.22061,-46.98165 -3.49736,0 -3.49737,0 -0.21205,46.98165 c -0.20607,45.65564 -0.25285,47.05223 -1.657502,49.48257 -1.578069,2.73039 -6.62497,5.72648 -9.602842,5.70071 -0.997483,-0.009 -3.15886,-0.62646 -4.803054,-1.37295 l 0,0 z"
     id="path2992"
     inkscape:connector-curvature="0" /></svg>