<?xml version="1.0" encoding="UTF-8" standalone="no"?>
<svg
   xmlns:dc="http://purl.org/dc/elements/1.1/"
   xmlns:cc="http://creativecommons.org/ns#"
   xmlns:rdf="http://www.w3.org/1999/02/22-rdf-syntax-ns#"
   xmlns:svg="http://www.w3.org/2000/svg"
   xmlns="http://www.w3.org/2000/svg"
   xmlns:sodipodi="http://sodipodi.sourceforge.net/DTD/sodipodi-0.dtd"
   xmlns:inkscape="http://www.inkscape.org/namespaces/inkscape"
   version="1.1"
   x="0px"
   y="0px"
   viewBox="0 0 823.93427 1029.8962375"
   enable-background="new 0 0 2000 2000"
   xml:space="preserve"
   id="svg2"
   inkscape:version="0.48.4 r9939"
   width="100%"
   height="100%"
   sodipodi:docname="empty.svg"><metadata
     id="metadata14"><rdf:RDF><cc:Work
         rdf:about=""><dc:format>image/svg+xml</dc:format><dc:type
           rdf:resource="http://purl.org/dc/dcmitype/StillImage" /></cc:Work></rdf:RDF></metadata><defs
     id="defs12" /><sodipodi:namedview
     pagecolor="#ffffff"
     bordercolor="#666666"
     borderopacity="1"
     objecttolerance="10"
     gridtolerance="10"
     guidetolerance="10"
     inkscape:pageopacity="0"
     inkscape:pageshadow="2"
     inkscape:window-width="1301"
     inkscape:window-height="744"
     id="namedview10"
     showgrid="false"
     inkscape:zoom="0.32406605"
     inkscape:cx="704.14014"
     inkscape:cy="344.32315"
     inkscape:window-x="65"
     inkscape:window-y="24"
     inkscape:window-maximized="1"
     inkscape:current-layer="svg2" /><path
     style=""
     d="m 776.75678,0 c -12.064,0 -24.124,4.608 -33.345,13.828 L 411.94378,345.27301 80.52575,13.879 c -18.443,-18.441 -48.255,-18.441 -66.695,0 -18.441,18.44 -18.441,48.244 0,66.685 l 331.418,331.39601 -331.418,331.399 c -18.441,18.44 -18.441,48.25 0,66.691 9.198,9.198 21.272,13.817 33.347,13.817 12.073,0 24.15,-4.619 33.348,-13.817 l 331.41803,-331.398 331.468,331.445 c 9.197,9.198 21.271,13.82 33.345,13.82 12.074,0 24.101,-4.622 33.346,-13.82 18.442,-18.441 18.442,-48.247 0,-66.687 l -331.464,-331.446 331.464,-331.44501 c 18.442,-18.441 18.442,-48.25 0,-66.691 C 800.88178,4.608 788.81678,0 776.75678,0 Z"
     id="path4"
     fill="#000000" /></svg>