<?xml version="1.0" encoding="UTF-8" standalone="no"?>
<svg
   xmlns:dc="http://purl.org/dc/elements/1.1/"
   xmlns:cc="http://creativecommons.org/ns#"
   xmlns:rdf="http://www.w3.org/1999/02/22-rdf-syntax-ns#"
   xmlns:svg="http://www.w3.org/2000/svg"
   xmlns="http://www.w3.org/2000/svg"
   xmlns:sodipodi="http://sodipodi.sourceforge.net/DTD/sodipodi-0.dtd"
   xmlns:inkscape="http://www.inkscape.org/namespaces/inkscape"
   version="1.1"
   x="0px"
   y="0px"
   viewBox="0 0 522.51 440.08875"
   style="enable-background:new 0 0 522.51 352.071;"
   xml:space="preserve"
   id="svg2"
   inkscape:version="0.48.4 r9939"
   width="100%"
   height="100%"
   sodipodi:docname="fight.svg"><metadata
     id="metadata28"><rdf:RDF><cc:Work
         rdf:about=""><dc:format>image/svg+xml</dc:format><dc:type
           rdf:resource="http://purl.org/dc/dcmitype/StillImage" /></cc:Work></rdf:RDF></metadata><defs
     id="defs26" /><sodipodi:namedview
     pagecolor="#ffffff"
     bordercolor="#666666"
     borderopacity="1"
     objecttolerance="10"
     gridtolerance="10"
     guidetolerance="10"
     inkscape:pageopacity="0"
     inkscape:pageshadow="2"
     inkscape:window-width="1301"
     inkscape:window-height="744"
     id="namedview24"
     showgrid="false"
     inkscape:zoom="1.5167595"
     inkscape:cx="239.56371"
     inkscape:cy="224.17428"
     inkscape:window-x="65"
     inkscape:window-y="24"
     inkscape:window-maximized="1"
     inkscape:current-layer="g4" /><g
     id="g4"><g
       id="g6"><path
         d="M75.277,123.923c0.413-0.265,0.67-0.717,0.688-1.207l0.637-17.22l9.974,14.737c0.284,0.419,0.765,0.67,1.272,0.66    c0.505-0.01,0.976-0.28,1.243-0.709l7.146-11.509l1.891,11.431c0.134,0.818,0.907,1.371,1.723,1.235    c0.818-0.133,1.371-0.906,1.237-1.722v-0.002l-2.54-15.364c-0.103-0.616-0.575-1.104-1.188-1.227    c-0.612-0.122-1.237,0.15-1.566,0.68l-8.029,12.931l-11.248-16.62c-0.362-0.537-1.032-0.781-1.654-0.602    c-0.623,0.179-1.063,0.74-1.086,1.387l-0.729,19.647l-16.328-6.755c-0.582-0.24-1.253-0.09-1.679,0.374    c-0.426,0.464-0.514,1.149-0.224,1.706l8.75,16.757l-16.897,0.918c-0.643,0.035-1.188,0.471-1.363,1.091    c-0.174,0.619,0.062,1.276,0.592,1.642l17.598,12.148l-9.671,8.5c-0.46,0.405-0.626,1.042-0.427,1.619    c0.201,0.578,0.728,0.975,1.338,1.005l14.587,0.771c0.027,0.001,0.055,0.002,0.083,0.002c0.79,0,1.45-0.62,1.494-1.42    c0.043-0.826-0.592-1.533-1.418-1.576l-10.911-0.578l8.352-7.337c0.345-0.304,0.534-0.754,0.507-1.214    c-0.027-0.461-0.267-0.886-0.645-1.147l-15.57-10.751l14.84-0.805c0.51-0.027,0.968-0.311,1.221-0.754    c0.254-0.446,0.263-0.984,0.026-1.436l-7.916-15.165l14.505,6.001C74.346,124.235,74.862,124.188,75.277,123.923z"
         id="path8" /><ellipse
         transform="matrix(0.9291 -0.3697 0.3697 0.9291 -52.2957 53.5693)"
         cx="113.607"
         cy="163.216"
         rx="22.494"
         ry="22.496"
         id="ellipse10" /><path
         d="M228.039,324.848c-19.822-6.063-29.762-15.502-35.789-25.525c-5.959-10.043-7.668-21.441-7.652-30.572    c-0.002-4.666,0.436-8.68,0.857-11.432c0.211-1.375,0.418-2.438,0.561-3.111c0.07-0.334,0.125-0.574,0.16-0.707    c0.014-0.066,0.025-0.107,0.027-0.119c0.557-2.15,0.51-4.313-0.021-6.318c-0.074-1.383-0.514-2.764-1.361-3.984l-10.97-21.651    c12.986-7.809,20.846-17.666,25.374-27.237c4.97-10.477,6.044-20.544,6.048-27.38c-0.002-5.336-0.657-8.723-0.687-8.87    c-0.136-0.696-0.512-1.277-1.014-1.702c0.435-2.212,0.623-4.321,0.616-6.301c-0.021-10.309-4.903-16.723-5.113-17.014    c-0.066-0.086-0.146-0.156-0.219-0.233c0.227-1.844,0.331-3.611,0.329-5.297c-0.014-13.469-6.503-21.337-7.939-22.913    c-1.588-18.809-9.37-31.727-9.496-31.962c-0.688-1.141-2.044-1.693-3.333-1.354c-1.288,0.338-2.2,1.488-2.235,2.819    c-0.478,17.701-4.901,38.509-10.196,57.413c-6.43-7.651-15.833-15.422-29.222-23.579c-3.775-2.297-8.695-1.096-10.99,2.68    c-2.299,3.772-1.1,8.695,2.676,10.99c13.311,8.086,21.615,15.424,26.352,21.512c2.574,3.321,4.111,6.19,4.988,8.708    c-2.667,8.113-5.262,15.343-7.434,21.143c-0.937,0.831-1.88,1.598-2.784,2.264c-1.578,1.174-3.016,2.081-4.018,2.671    c-0.463,0.273-0.822,0.467-1.07,0.603c-0.609,0.223-1.201,0.518-1.758,0.904l-31.723,22.055c-0.529,0.367-0.99,0.795-1.396,1.258    c-0.64,0.528-1.752,1.421-3.15,2.476c-5.267-0.642-12.02-1.558-19.657-2.781c0.211-1.398,0.475-2.901,0.812-4.532    c0.89-4.33-1.897-8.559-6.225-9.447c-4.33-0.891-8.559,1.895-9.448,6.225c-0.357,1.742-0.652,3.395-0.9,4.983    c-22.108-4.245-47.683-10.738-66.705-20.191c-1.194-0.593-2.635-0.324-3.538,0.653c-0.903,0.978-1.052,2.44-0.366,3.581    c0.116,0.186,5.145,8.529,15.322,17.118c2.501,2.111,5.325,4.237,8.463,6.256c0.53,1.469,2.651,6.602,8.108,11.754    c3.18,3.014,7.52,5.978,13.239,8.169c0.035,0.106,0.061,0.214,0.109,0.317l-0.002-0.002c0.123,0.253,1.998,4.295,6.658,8.375    c2.831,2.492,6.749,4.966,11.83,6.515c0.138,0.647,0.477,1.256,1.031,1.705c0.272,0.19,15.09,12.271,37.199,12.311    c0.021,0,0.045,0,0.067,0c9.4,0,20.079-2.28,31.249-8.559l7.339,10.555c-3.352,2.279-7.836,5.656-12.463,10.147    c-4.477,4.367-9.105,9.807-12.768,16.52c-3.648,6.686-6.301,14.791-6.297,23.84c-0.051,12.685,5.359,26.334,16.902,39.266    c2.469,2.791,5.908,4.215,9.363,4.215c2.945,0,5.902-1.035,8.281-3.139c5.17-4.576,5.648-12.477,1.074-17.647    c-8.539-9.75-10.566-16.943-10.619-22.695c0.008-4.168,1.174-8.043,3.258-11.897c3.086-5.744,8.379-11.072,12.953-14.703    c2.275-1.822,4.344-3.24,5.785-4.164c0.721-0.463,1.283-0.801,1.639-1.01c0.178-0.104,0.303-0.176,0.369-0.213    c0.018-0.01,0.029-0.02,0.037-0.022c0.014-0.006,0.02-0.008,0.02-0.008l-0.002-0.004c0.449-0.244,0.869-0.52,1.273-0.809    c0.77,10.861,3.516,23.758,10.877,36.272c8.955,15.359,25.189,29.369,50.119,36.758c1.199,0.359,2.41,0.531,3.602,0.531    c5.375,0,10.34-3.494,11.967-8.906C238.399,333.805,234.649,326.834,228.039,324.848z M98.987,210.163    c-2.093,1.264-4.262,2.426-6.237,3.251c-2.352,1.012-4.436,1.453-5.361,1.42c-0.165,0-0.293-0.008-0.383-0.018    c-0.092-0.168-0.239-0.496-0.39-1.061c-0.234-0.881-0.441-2.314-0.439-4.305c0-0.371,0.008-0.765,0.022-1.175    C90.837,209.016,95.139,209.641,98.987,210.163z M34.779,212.634c7.74,3.413,16.802,5.846,27.185,6.228    c0.038,0.001,0.076,0.002,0.114,0.002c1.603,0,2.933-1.272,2.994-2.887c0.06-1.655-1.231-3.048-2.887-3.107    c-18.98-0.709-33.092-8.791-42.566-16.77c-2.617-2.205-4.871-4.4-6.759-6.418c18.014,7.211,38.991,12.287,57.476,15.818    c-0.102,1.37-0.158,2.689-0.159,3.951c0.024,5.598,0.969,10.465,3.749,14.539c-2.687,0.258-5.221,0.386-7.592,0.385    c-15.681-0.024-24.637-5.121-29.897-10.044C35.834,213.762,35.286,213.195,34.779,212.634z M102.385,250.089    c-9.922,0.002-18.327-2.761-24.243-5.538c-0.641-0.3-1.246-0.6-1.827-0.896c6.955-0.149,15.183-1.91,24.87-6.122    c1.52-0.661,2.216-2.429,1.555-3.948c-0.661-1.52-2.427-2.216-3.946-1.555c-9.542,4.149-17.265,5.64-23.448,5.64    c-9.35-0.019-15.281-3.343-19.07-6.628c-0.65-0.567-1.209-1.129-1.728-1.68c3.514,0.645,7.395,1.015,11.677,1.015    c0.038,0,0.072,0,0.109,0c4.178,0,8.745-0.352,13.716-1.108c0.177,0.083,0.353,0.169,0.531,0.244    c2.3,0.979,4.641,1.322,6.807,1.322c4.534-0.035,8.504-1.354,12.254-2.967c5.485-2.438,10.624-5.768,14.456-8.533l16.158,23.241    C120.135,248.154,110.714,250.08,102.385,250.089z M157.485,189.125c1.863-1.295,3.98-2.918,6.148-4.891    c3.094-2.838,6.301-6.402,8.836-10.866c2.527-4.443,4.354-9.881,4.346-15.971c0.02-6.372-2.02-13.15-6.322-19.909    c4.739-16.265,9.019-34.338,10.827-51.135c2.148,6.258,4.219,14.844,4.21,24.664c-0.002,9.107-1.755,19.271-6.84,29.785    c-0.721,1.492-0.098,3.287,1.395,4.008c1.491,0.721,3.287,0.098,4.008-1.395c4.518-9.338,6.624-18.488,7.238-26.92    c1.048,2.898,1.86,6.537,1.856,10.895c-0.008,9.334-3.653,22.217-17.307,38.512c-1.065,1.271-0.901,3.163,0.37,4.228    c0.562,0.471,1.245,0.701,1.926,0.701c0.856,0,1.707-0.365,2.302-1.072c8.72-10.382,13.757-19.763,16.364-27.99    c0.739,2.175,1.353,4.941,1.346,8.165c-0.037,8.045-3.607,19.285-19.726,32.185c-1.296,1.032-1.509,2.922-0.477,4.218    c0.593,0.743,1.467,1.13,2.349,1.13c0.655,0,1.315-0.213,1.868-0.653c8.267-6.558,13.675-13.037,17.063-19.111    c-0.092,6.181-1.195,14.938-5.459,23.913c-4.058,8.516-10.914,17.264-22.676,24.438L157.485,189.125z"
         id="path12" /></g><g
       id="g14"><path
         d="M273.371,102.723l92.41-45.31l23.502,37.603l-6.699,39.801c-10.288,2.563-20.574,5.124-30.86,7.687    c-0.99,0.237-1.868,0.73-2.61,1.414c-0.728,0.178-1.442,0.457-2.123,0.853l-69.336,40.33c-3.82,2.223-5.115,7.12-2.894,10.938    c1.485,2.554,4.168,3.98,6.925,3.98c1.365,0,2.748-0.35,4.013-1.086l63.742-37.077c6.57,20.656,13.491,36.376,26.017,53.26    l-30.952,23.239c-5.371,4.031-6.594,11.605-2.766,17.123l34.001,48.999c2.427,3.499,6.321,5.375,10.281,5.375    c2.458,0,4.941-0.723,7.114-2.229c5.672-3.938,7.08-11.726,3.146-17.397l-27.137-39.109l38.586-28.969    c0.854-0.642,1.591-1.38,2.23-2.176c3.989,2.516,8.937,5.337,14.87,8.155c17.017,8.089,42.048,16.063,74.103,16.057    c3.843-0.003,7.78-0.115,11.816-0.354c6.89-0.408,12.147-6.327,11.738-13.217c-0.41-6.891-6.327-12.148-13.216-11.738    c-3.549,0.208-6.995,0.309-10.339,0.309c-27.894-0.007-49.124-6.883-63.38-13.643c-3.059-1.452-5.771-2.895-8.171-4.266    c2.426-1.079,4.927-2.305,7.44-3.701c7.432-4.143,14.984-9.783,20.757-17.493c5.776-7.695,9.679-17.535,9.661-29.463    c0-6.179-1.032-12.899-3.285-20.189l12.745,2.137l-27.168-30.112l-4.367,38.515l10.832-9.128    c2.259,7.001,3.243,13.24,3.243,18.778c-0.018,10.2-3.207,18.142-8.068,24.672c-7.276,9.772-18.61,16.186-28.201,20.016    c-0.631,0.253-1.253,0.494-1.866,0.726c-1.489-1.055-2.618-1.925-3.337-2.503c-0.399-0.322-0.677-0.558-0.834-0.691    c-0.067-0.058-0.113-0.098-0.136-0.117c-0.063-0.058-0.133-0.105-0.197-0.161c-17.102-19.773-16.22-36.264-16.739-52.111    l7.703-45.77c0.324-1.922-0.072-3.915-1.106-5.567l-24.235-38.78l89.317-43.794L466.334,0l-90.451,44.351    c-2.574-1.979-6.201-2.271-9.114-0.449c-2.419,1.511-3.742,4.103-3.753,6.758l-92.768,45.487    c-6.923-10.234-20.952-13.869-32.914-8.005c-7.153,3.509-12.07,9.686-14.048,16.594c2.56-3.599,6.217-6.761,10.735-8.977    c10.941-5.366,23.155-3.323,28.912,4.332l-36.344,21.486l0.023,0.047l39.141-15.536c2.108,9.104-3.759,19.655-14.457,24.904    c-4.52,2.215-9.261,3.169-13.675,2.987c6.674,2.669,14.569,2.565,21.726-0.943C271.103,127.273,276.832,114.309,273.371,102.723z"
         id="path16" /><path
         d="M325.896,107.655c-3.852,11.812,2.601,24.51,14.413,28.358c11.809,3.855,24.508-2.6,28.359-14.411    c3.853-11.813-2.6-24.51-14.412-28.362c-2.117-0.69-4.262-1.044-6.379-1.1c-11.064-9.532-27.798-5.326-27.798-5.326    s9.7,3.354,15.009,8.915C330.892,98.433,327.563,102.54,325.896,107.655z"
         id="path18" /></g></g></svg>