<?xml version="1.0" encoding="UTF-8" standalone="no"?>
<!-- Svg Vector Icons : http://www.onlinewebfonts.com/icon -->

<svg
   xmlns:dc="http://purl.org/dc/elements/1.1/"
   xmlns:cc="http://creativecommons.org/ns#"
   xmlns:rdf="http://www.w3.org/1999/02/22-rdf-syntax-ns#"
   xmlns:svg="http://www.w3.org/2000/svg"
   xmlns="http://www.w3.org/2000/svg"
   xmlns:sodipodi="http://sodipodi.sourceforge.net/DTD/sodipodi-0.dtd"
   xmlns:inkscape="http://www.inkscape.org/namespaces/inkscape"
   version="1.1"
   x="0px"
   y="0px"
   viewBox="0 0 1000 1000"
   enable-background="new 0 0 1000 1000"
   xml:space="preserve"
   id="svg2"
   inkscape:version="0.48.4 r9939"
   width="100%"
   height="100%"
   sodipodi:docname="grave.svg"><defs
     id="defs20" /><sodipodi:namedview
     pagecolor="#ffffff"
     bordercolor="#666666"
     borderopacity="1"
     objecttolerance="10"
     gridtolerance="10"
     guidetolerance="10"
     inkscape:pageopacity="0"
     inkscape:pageshadow="2"
     inkscape:window-width="1301"
     inkscape:window-height="744"
     id="namedview18"
     showgrid="false"
     inkscape:zoom="0.236"
     inkscape:cx="500"
     inkscape:cy="500"
     inkscape:window-x="65"
     inkscape:window-y="24"
     inkscape:window-maximized="1"
     inkscape:current-layer="svg2" /><metadata
     id="metadata4"> Svg Vector Icons : http://www.onlinewebfonts.com/icon <rdf:RDF><cc:Work
     rdf:about=""><dc:format>image/svg+xml</dc:format><dc:type
       rdf:resource="http://purl.org/dc/dcmitype/StillImage" /></cc:Work></rdf:RDF></metadata><g
     id="g6"
     transform="matrix(0.76922855,0,0,0.6930129,121.74326,28.493501)"><g
       transform="matrix(0.1,0,0,-0.1,0,512)"
       id="g8"><path
         d="M 4622.2,4999.5 C 4080.5,4936.3 3556,4741.1 3092.8,4429.1 2315.6,3908.4 1785.4,3121.7 1588.3,2195.3 l -44,-208.6 -5.8,-2461.7 -5.7,-2461.6 -197.2,-9.6 c -170.4,-7.6 -214.4,-17.2 -325.4,-68.9 -243.1,-112.9 -442.2,-365.6 -490,-618.3 -24.9,-126.3 -24.9,-329.2 0,-455.6 55.5,-298.6 294.8,-560.8 595.3,-654.6 112.9,-34.5 239.3,-36.4 3883.9,-36.4 3644.6,0 3770.9,1.9 3883.9,36.4 304.3,93.8 536,354.1 593.4,660.4 63.2,338.8 -11.5,645.1 -208.6,857.6 -176.1,193.3 -384.7,283.3 -654.7,283.3 H 8466 l -5.7,2465.5 -5.7,2463.5 -44,208.6 c -201,949.4 -738.9,1732.3 -1554.3,2270.2 -645.3,423 -1478,622.1 -2234.1,534 z m 645.1,-402 c 291,-26.8 459.4,-61.2 733.1,-151.2 438.3,-145.5 830.8,-386.7 1156.2,-708.2 168.4,-166.5 344.6,-377.1 329.2,-390.5 -3.8,-3.8 -128.2,-45.9 -277.6,-95.7 -168.5,-55.5 -285.2,-105.3 -310.1,-132.1 -21.1,-23 -91.9,-149.3 -157,-281.4 -130.2,-266.1 -135.9,-313.9 -36.4,-405.8 53.6,-51.7 93.8,-63.2 179.9,-53.6 65.1,5.7 132.1,88.1 218.2,264.2 l 82.3,168.4 268,88.1 266.1,90 59.3,-128.2 c 78.5,-176.1 179.9,-482.4 214.4,-654.7 63.2,-312 68.9,-493.9 68.9,-2394.6 v -1904.6 l -555.1,78.5 c -304.4,44 -558.9,84.2 -564.7,90 -34.4,34.4 -277.5,369.4 -277.5,382.8 0,9.6 78.5,132.1 172.3,275.6 204.8,306.3 218.2,335 191.4,421.1 -28.7,86.1 -103.4,141.7 -189.5,141.7 -99.5,0 -139.7,-36.4 -292.9,-264.2 -74.6,-112.9 -137.8,-206.7 -139.7,-210.6 -3.8,-3.8 -34.5,11.5 -68.9,32.5 -80.4,49.8 -143.6,49.8 -220.1,3.8 -76.6,-47.9 -112.9,-145.5 -84.2,-224 38.3,-101.5 668.1,-920.7 723.6,-943.7 40.2,-15.3 1228.9,-193.3 1292.1,-193.3 7.7,0 13.4,-99.5 13.4,-220.1 v -220.1 H 6067.4 l -1996.5,1.9 -147.4,187.6 -147.4,187.6 80.4,246.9 82.3,246.9 191.4,99.6 c 248.8,128.2 300.5,210.6 225.9,352.2 -34.4,70.8 -139.7,118.7 -214.4,101.4 -82.3,-21.1 -463.2,-216.3 -511.1,-264.2 -23,-23 -67,-114.9 -95.7,-204.8 -28.7,-88 -57.4,-168.4 -61.3,-176.1 -17.2,-28.7 -124.4,130.2 -220.1,321.6 -53.6,105.3 -112.9,214.4 -134,243.1 -74.6,105.3 -252.7,103.4 -329.2,-5.8 -38.3,-55.5 -38.3,-162.7 -1.9,-227.8 44,-76.6 36.4,-95.7 -40.2,-95.7 -53.6,0 -84.2,-15.3 -135.9,-67 -61.2,-61.3 -67,-76.6 -57.4,-147.4 5.7,-49.8 28.7,-97.6 59.3,-128.2 47.9,-45.9 65.1,-49.8 252.7,-55.5 l 201,-7.7 185.7,-231.6 c 103.4,-128.2 212.5,-266.1 241.2,-306.3 l 53.6,-70.8 h -805.9 -805.9 v 2325.7 c 0,1565.8 7.7,2388.9 21.1,2521 44,415.4 201,882.4 411.6,1232.7 120.6,202.9 304.3,447.9 335,447.9 9.6,0 170.4,-76.6 357.9,-170.4 L 3401,3244 l 65.1,-197.2 c 116.8,-357.9 135.9,-400.1 201,-440.3 32.5,-19.1 80.4,-36.4 107.2,-36.4 76.6,0 166.5,67 191.4,141.7 19.1,61.3 11.5,97.6 -93.8,417.3 -65.1,193.3 -128.3,367.5 -141.6,386.7 -13.4,19.1 -181.9,112.9 -375.2,210.6 l -348.4,176.1 178,128.2 c 405.8,291 909.2,492 1374.4,547.5 342.6,42.3 432.6,46.1 708.2,19.3 z m 3522.1,-7962.9 c 112.9,-24.9 206.7,-99.6 250.7,-197.2 51.7,-112.9 51.7,-484.3 0,-597.2 -44,-97.6 -137.8,-172.3 -250.7,-197.2 -118.7,-28.7 -7461.4,-28.7 -7580.1,0 -112.9,24.9 -206.7,99.5 -250.8,197.2 -51.7,112.9 -51.7,484.3 0,597.2 42.1,93.8 139.7,172.3 243.1,197.2 109.1,24.9 7476.8,26.8 7587.8,0 z"
         id="path10"
         inkscape:connector-curvature="0" /><path
         d="m 3226.8,1682.3 -65.1,-65.1 V 849.6 c 0,-826.9 1.9,-849.9 99.5,-895.8 84.2,-40.2 112.9,-44 178,-17.2 105.3,44 120.6,88.1 126.3,352.2 l 5.7,235.5 134,-5.8 132.1,-5.7 84.2,-248.8 c 86.1,-260.3 114.8,-306.3 206.7,-331.1 122.5,-34.5 258.4,59.3 258.4,178 0,23 -42.1,166.5 -95.7,323.5 l -93.8,283.3 93.8,189.5 c 53.6,103.4 95.7,210.6 95.7,237.4 0,67 -237.4,536 -291,572.3 -36.4,24.9 -107.2,30.6 -423,30.6 h -380.9 l -64.9,-65.2 z m 673.8,-436.5 49.8,-99.5 -49.8,-101.5 -49.8,-101.4 h -143.6 -143.6 l 3.8,201 1.9,201 h 139.7 141.6 l 50,-99.6 z"
         id="path12"
         inkscape:connector-curvature="0" /><path
         d="m 4878.7,1707.1 c -86.1,-67 -91.9,-126.3 -86.1,-920.7 l 5.7,-742.7 59.3,-59.3 c 84.2,-84.2 199.1,-84.2 283.3,1.9 l 59.3,57.4 5.7,742.7 c 3.8,491.9 0,763.8 -15.3,811.6 -26.8,91.9 -99.5,149.3 -191.4,149.3 -42,0 -91.7,-15.3 -120.5,-40.2 z"
         id="path14"
         inkscape:connector-curvature="0" /><path
         d="m 5684.6,1691.8 -63.2,-55.5 -5.7,-771.4 c -3.8,-543.6 1.9,-786.7 17.2,-825 59.4,-145.5 287.1,-153.1 363.7,-11.5 13.4,24.9 21.1,128.2 19.1,268 l -1.9,225.9 h 315.8 c 356,0 428.8,17.2 476.6,112.9 24.9,47.9 30.6,135.9 30.6,507.3 0,308.2 -7.7,465.1 -23,499.6 -44,97.6 -88,105.3 -597.2,105.3 h -470.9 l -61.1,-55.6 z M 6435,1144.4 v -201 h -206.7 -204.8 l -7.7,201 -5.7,201 h 212.5 212.4 v -201 z"
         id="path16"
         inkscape:connector-curvature="0" /></g></g></svg>