<?xml version="1.0" encoding="UTF-8" standalone="no"?>
<svg
   xmlns:dc="http://purl.org/dc/elements/1.1/"
   xmlns:cc="http://creativecommons.org/ns#"
   xmlns:rdf="http://www.w3.org/1999/02/22-rdf-syntax-ns#"
   xmlns:svg="http://www.w3.org/2000/svg"
   xmlns="http://www.w3.org/2000/svg"
   xmlns:sodipodi="http://sodipodi.sourceforge.net/DTD/sodipodi-0.dtd"
   xmlns:inkscape="http://www.inkscape.org/namespaces/inkscape"
   version="1.1"
   x="0px"
   y="0px"
   viewBox="0 0 102.305 296.47875"
   style="enable-background:new 0 0 102.305 237.183;"
   xml:space="preserve"
   id="svg2"
   inkscape:version="0.48.4 r9939"
   width="100%"
   height="100%"
   sodipodi:docname="noun_886359_cc.svg"><metadata
     id="metadata28"><rdf:RDF><cc:Work
         rdf:about=""><dc:format>image/svg+xml</dc:format><dc:type
           rdf:resource="http://purl.org/dc/dcmitype/StillImage" /></cc:Work></rdf:RDF></metadata><defs
     id="defs26" /><sodipodi:namedview
     pagecolor="#ffffff"
     bordercolor="#666666"
     borderopacity="1"
     objecttolerance="10"
     gridtolerance="10"
     guidetolerance="10"
     inkscape:pageopacity="0"
     inkscape:pageshadow="2"
     inkscape:window-width="640"
     inkscape:window-height="480"
     id="namedview24"
     showgrid="false"
     inkscape:zoom="4.5029116"
     inkscape:cx="49.333288"
     inkscape:cy="45.23416"
     inkscape:window-x="75"
     inkscape:window-y="34"
     inkscape:window-maximized="0"
     inkscape:current-layer="svg2" /><g
     id="g4"><path
       d="M85.739,137.864c-0.256,4.411,3.11,8.195,7.523,8.45c0.158,0.01,0.317,0.015,0.474,0.015c4.206,0,7.732-3.282,7.978-7.535   c0.064-1.107,0.113-2.177,0.167-3.256c-4.941,0.723-12.807,0.866-16.068,0.897C85.787,136.916,85.768,137.377,85.739,137.864z"
       id="path6" /><path
       d="M102.305,119.639c-0.041-30.184-4.862-46.886-11.435-56.931c-3.286-4.987-7.128-8.185-10.678-9.955   c-2.248-1.133-4.317-1.689-5.986-1.944c-1.784,3.876-10.024,21.494-16.982,31.384l-1.637-1.152   c3.817-5.417,8.125-13.397,11.455-20.001c2.292-4.543,4.125-8.429,5.049-10.417c-0.111-0.002-0.232-0.008-0.335-0.008   c-0.635,0-1.119,0.042-1.438,0.084H31.984c-0.314-0.042-0.797-0.084-1.432-0.084c-0.102,0-0.224,0.005-0.334,0.008   c0.923,1.989,2.755,5.876,5.047,10.418c3.332,6.602,7.638,14.582,11.457,20.001l-1.637,1.15   c-6.959-9.89-15.197-27.506-16.983-31.384c-1.669,0.255-3.739,0.811-5.986,1.943c-5.38,2.668-11.179,8.503-15.237,18.842   C2.772,81.973,0.015,96.979,0,119.639c0.001,4.333,0.105,8.95,0.324,13.866c4.513,0.717,12.641,0.895,16.067,0.935   c-0.263-5.314-0.392-10.252-0.39-14.801c-0.029-20.098,2.398-32.883,5.207-40.71c-1.276,31.281-4.09,107.818-2.806,146.169   c2.237,0.315,6.067,0.836,10.538,1.356c7.121,0.833,15.856,1.661,22.213,1.661c6.356,0,15.092-0.828,22.212-1.661   c4.472-0.521,8.304-1.041,10.541-1.357c1.284-38.345-1.529-114.865-2.806-146.155c0.008,0.021,0.015,0.038,0.023,0.059   c2.817,7.812,5.188,20.631,5.181,40.639c0,4.546-0.13,9.484-0.389,14.797c3.428-0.041,11.552-0.217,16.066-0.931   C102.198,128.59,102.304,123.973,102.305,119.639z M42.905,84.658h6.625v-5.833h3.25v5.833h6.625v3.25H52.78v16.167h-3.25V87.908   h-6.625V84.658z"
       id="path8" /><path
       d="M0.597,138.798c0.251,4.25,3.776,7.53,7.981,7.531c0.157,0,0.315-0.005,0.474-0.014c4.409-0.261,7.777-4.045,7.518-8.456   c-0.028-0.485-0.048-0.944-0.074-1.424c-3.26-0.032-11.126-0.175-16.068-0.897C0.481,136.618,0.531,137.688,0.597,138.798z"
       id="path10" /><path
       d="M36.474,237.183c4.958,0,9.224-2.925,11.194-7.138c-7.433-0.271-16.592-1.283-23.147-2.113   C25.903,233.251,30.724,237.183,36.474,237.183z"
       id="path12" /><path
       d="M65.837,237.183c5.751,0,10.572-3.932,11.954-9.251c-6.554,0.829-15.713,1.843-23.147,2.113   C56.615,234.258,60.88,237.183,65.837,237.183z"
       id="path14" /><circle
       cx="51.155"
       cy="22.5"
       r="22.5"
       id="circle16" /><path
       d="M49.965,230.105c0.405,0.007,0.803,0.011,1.191,0.011c0.389,0,0.786-0.004,1.191-0.011c-0.404,0.006-0.803,0.01-1.192,0.01   C50.766,230.115,50.368,230.111,49.965,230.105z"
       id="path18" /></g></svg>